<svg xmlns="http://www.w3.org/2000/svg" width="128" height="128" version="1.1" viewBox="0 0 33.866 33.866"><defs><linearGradient id="linearGradient1372" x1="34.705" x2="34.705" y1="-30.727" y2="-38.74" gradientTransform="matrix(.5297 0 0 .5297 -1.0863 27.968)" gradientUnits="userSpaceOnUse"><stop offset="0" stop-color="#efb63f"/><stop offset="1" stop-color="#f8d650"/></linearGradient><linearGradient id="linearGradient1380" x1="32.125" x2="32.125" y1="-29.828" y2="-39.838" gradientTransform="matrix(.5297 0 0 .5297 -1.0863 27.968)" gradientUnits="userSpaceOnUse"><stop offset="0" stop-color="#a88a47"/><stop offset="1" stop-color="#d7cfa7"/></linearGradient><linearGradient id="linearGradient1384" x1="34.705" x2="34.705" y1="-30.727" y2="-38.74" gradientTransform="matrix(.5297 0 0 .5297 -8.67 27.968)" gradientUnits="userSpaceOnUse"><stop offset="0" stop-color="#68d848"/><stop offset="1" stop-color="#99f27b"/></linearGradient><linearGradient id="linearGradient1386" x1="32.125" x2="32.125" y1="-29.828" y2="-39.838" gradientTransform="matrix(.5297 0 0 .5297 -8.67 27.968)" gradientUnits="userSpaceOnUse"><stop offset="0" stop-color="#5a9555"/><stop offset="1" stop-color="#ccf4bd"/></linearGradient><linearGradient id="linearGradient1402" x1="34.705" x2="34.705" y1="-30.727" y2="-38.74" gradientTransform="matrix(.5297 0 0 .5297 6.2792 27.968)" gradientUnits="userSpaceOnUse"><stop offset="0" stop-color="#e07f3e"/><stop offset="1" stop-color="#f1a73e"/></linearGradient><linearGradient id="linearGradient1404" x1="32.125" x2="32.125" y1="-29.828" y2="-39.838" gradientTransform="matrix(.5297 0 0 .5297 6.2792 27.968)" gradientUnits="userSpaceOnUse"><stop offset="0" stop-color="#ae714f"/><stop offset="1" stop-color="#ffdc8f"/></linearGradient><linearGradient id="linearGradient1514" x1="34.705" x2="34.705" y1="-30.727" y2="-38.74" gradientTransform="matrix(.5297 0 0 .5297 -8.67 35.368)" gradientUnits="userSpaceOnUse"><stop offset="0" stop-color="#b9281b"/><stop offset="1" stop-color="#e54e3b"/></linearGradient><linearGradient id="linearGradient1516" x1="32.125" x2="32.125" y1="-29.828" y2="-39.838" gradientTransform="matrix(.5297 0 0 .5297 -8.67 35.368)" gradientUnits="userSpaceOnUse"><stop offset="0" stop-color="#84281e"/><stop offset="1" stop-color="#df8881"/></linearGradient><linearGradient id="linearGradient1560" x1="34.705" x2="34.705" y1="-30.727" y2="-38.74" gradientTransform="matrix(.5297 0 0 .5297 -1.0863 35.368)" gradientUnits="userSpaceOnUse"><stop offset="0" stop-color="#878887"/><stop offset="1" stop-color="#d8e3e9"/></linearGradient><linearGradient id="linearGradient1562" x1="32.125" x2="32.125" y1="-29.828" y2="-39.838" gradientTransform="matrix(.5297 0 0 .5297 -1.0863 35.368)" gradientUnits="userSpaceOnUse"><stop offset="0" stop-color="#6c6c6a"/><stop offset="1" stop-color="#e3ebef"/></linearGradient><linearGradient id="linearGradient1590" x1="34.705" x2="34.705" y1="-30.727" y2="-38.74" gradientTransform="matrix(.5297 0 0 .5297 6.2792 35.368)" gradientUnits="userSpaceOnUse"><stop offset="0" stop-color="#e76872"/><stop offset="1" stop-color="#ea4f66"/></linearGradient><linearGradient id="linearGradient1592" x1="32.125" x2="32.125" y1="-29.828" y2="-39.838" gradientTransform="matrix(.5297 0 0 .5297 6.2792 35.368)" gradientUnits="userSpaceOnUse"><stop offset="0" stop-color="#ab5863"/><stop offset="1" stop-color="#d7798a"/></linearGradient><linearGradient id="linearGradient1620" x1="34.705" x2="34.705" y1="-30.727" y2="-38.74" gradientTransform="matrix(.5297 0 0 .5297 -8.67 42.768)" gradientUnits="userSpaceOnUse"><stop offset="0" stop-color="#783bb3"/><stop offset="1" stop-color="#b76de6"/></linearGradient><linearGradient id="linearGradient1622" x1="32.125" x2="32.125" y1="-29.828" y2="-39.838" gradientTransform="matrix(.5297 0 0 .5297 -8.67 42.768)" gradientUnits="userSpaceOnUse"><stop offset="0" stop-color="#4b2677"/><stop offset=".946" stop-color="#b481d5"/><stop offset="1" stop-color="#ddc9ec"/></linearGradient><linearGradient id="linearGradient1653" x1="34.705" x2="34.705" y1="-30.727" y2="-38.74" gradientTransform="matrix(.5297 0 0 .5297 -1.0863 42.768)" gradientUnits="userSpaceOnUse"><stop offset="0" stop-color="#3468e0"/><stop offset="1" stop-color="#61dafc"/></linearGradient><linearGradient id="linearGradient1655" x1="32.125" x2="32.125" y1="-29.828" y2="-39.838" gradientTransform="matrix(.5297 0 0 .5297 -1.0863 42.768)" gradientUnits="userSpaceOnUse"><stop offset="0" stop-color="#29438e"/><stop offset=".946" stop-color="#90dcec"/><stop offset="1" stop-color="#abe2eb"/></linearGradient><linearGradient id="linearGradient1685" x1="34.705" x2="34.705" y1="-30.727" y2="-38.74" gradientTransform="matrix(.5297 0 0 .5297 6.2792 42.768)" gradientUnits="userSpaceOnUse"><stop offset="0" stop-color="#5bc18f"/><stop offset="1" stop-color="#84e4dd"/></linearGradient><linearGradient id="linearGradient1687" x1="32.125" x2="32.125" y1="-29.828" y2="-39.838" gradientTransform="matrix(.5297 0 0 .5297 6.2792 42.768)" gradientUnits="userSpaceOnUse"><stop offset="0" stop-color="#3f8264"/><stop offset=".946" stop-color="#a2e1e0"/><stop offset="1" stop-color="#b8e4e2"/></linearGradient><linearGradient id="linearGradient862-3" x1="7.937" x2="7.937" y1="15.081" y2="1.852" gradientTransform="matrix(1.9999 0 0 1.9999 .00011 .02433)" gradientUnits="userSpaceOnUse"><stop offset="0" stop-color="#e8e8e8"/><stop offset="1" stop-color="#fcfcfc"/></linearGradient><filter id="filter1766" width="1.886" height="1.929" x="-.443" y="-.464" color-interpolation-filters="sRGB"><feGaussianBlur stdDeviation=".453"/></filter><filter id="filter1033" width="1.116" height="1.116" x="-.058" y="-.058" color-interpolation-filters="sRGB"><feGaussianBlur stdDeviation=".717"/></filter><clipPath id="clipPath1261"><path fill="#000" d="m0.82939-4.9572c-3.8115 0-6.8801 3.0686-6.8801 6.8801v30.927c0 3.8115 3.0686 6.8796 6.8801 6.8796h31.947c3.8115 0 6.8801-3.0681 6.8801-6.8796v-30.927c0-3.8115-3.0686-6.8801-6.8801-6.8801zm8.1673 7.0816h15.874c3.8115 0 6.8796 3.0681 6.8796 6.8795v15.874c0 3.8115-3.0681 6.8801-6.8796 6.8801h-15.874c-3.8115 0-6.8801-3.0686-6.8801-6.8801v-15.874c0-3.8115 3.0686-6.8795 6.8801-6.8795z" style="paint-order:stroke fill markers"/></clipPath></defs><rect width="29.634" height="29.634" x="2.117" y="2.124" fill="url(#linearGradient862-3)" stroke-width="2" opacity=".8" rx="6.88" ry="6.88"/><rect width="29.634" height="29.634" x="2.117" y="2.511" fill="#000" stroke-width="2" clip-path="url(#clipPath1261)" filter="url(#filter1033)" opacity=".15" rx="6.88" ry="6.88"/><rect width="2.693" height="2.57" x="7.149" y="3.477" fill="#000" stroke="#000" stroke-dashoffset="1" stroke-linecap="round" stroke-linejoin="round" stroke-width=".212" filter="url(#filter1766)" opacity=".15" rx=".382" ry=".382" transform="matrix(2 0 0 2 .05277 .99107)"/><rect width="2.693" height="2.57" x="3.357" y="3.477" fill="#000" stroke="#000" stroke-dashoffset="1" stroke-linecap="round" stroke-linejoin="round" stroke-width=".212" filter="url(#filter1766)" opacity=".15" rx=".382" ry=".382" transform="matrix(2 0 0 2 .05277 .99107)"/><rect width="2.693" height="2.57" x="10.831" y="3.477" fill="#000" stroke="#000" stroke-dashoffset="1" stroke-linecap="round" stroke-linejoin="round" stroke-width=".212" filter="url(#filter1766)" opacity=".15" rx=".382" ry=".382" transform="matrix(2 0 0 2 .05277 .99107)"/><rect width="2.693" height="2.57" x="3.357" y="7.177" fill="#000" stroke="#000" stroke-dashoffset="1" stroke-linecap="round" stroke-linejoin="round" stroke-width=".212" filter="url(#filter1766)" opacity=".15" rx=".382" ry=".382" transform="matrix(2 0 0 2 .05277 .99107)"/><rect width="2.693" height="2.57" x="7.149" y="7.177" fill="#000" stroke="#000" stroke-dashoffset="1" stroke-linecap="round" stroke-linejoin="round" stroke-width=".212" filter="url(#filter1766)" opacity=".15" rx=".382" ry=".382" transform="matrix(2 0 0 2 .05277 .99107)"/><rect width="2.693" height="2.57" x="10.831" y="7.177" fill="#000" stroke="#000" stroke-dashoffset="1" stroke-linecap="round" stroke-linejoin="round" stroke-width=".212" filter="url(#filter1766)" opacity=".15" rx=".382" ry=".382" transform="matrix(2 0 0 2 .05277 .99107)"/><rect width="2.693" height="2.57" x="3.357" y="10.878" fill="#000" stroke="#000" stroke-dashoffset="1" stroke-linecap="round" stroke-linejoin="round" stroke-width=".212" filter="url(#filter1766)" opacity=".15" rx=".382" ry=".382" transform="matrix(2 0 0 2 .05277 .99107)"/><rect width="2.693" height="2.57" x="7.149" y="10.878" fill="#000" stroke="#000" stroke-dashoffset="1" stroke-linecap="round" stroke-linejoin="round" stroke-width=".212" filter="url(#filter1766)" opacity=".15" rx=".382" ry=".382" transform="matrix(2 0 0 2 .05277 .99107)"/><rect width="2.693" height="2.57" x="10.831" y="10.878" fill="#000" stroke="#000" stroke-dashoffset="1" stroke-linecap="round" stroke-linejoin="round" stroke-width=".212" filter="url(#filter1766)" opacity=".15" rx=".382" ry=".382" transform="matrix(2 0 0 2 .05277 .99107)"/><path fill="url(#linearGradient1372)" stroke-width="2" d="m15.113 6.9708h3.8586c0.42304 0 0.7636 0.34056 0.7636 0.7636v3.612c0 0.42304-0.34056 0.7636-0.7636 0.7636h-3.8586c-0.42304 0-0.7636-0.34056-0.7636-0.7636v-3.612c0-0.42304 0.34056-0.7636 0.7636-0.7636z" color="#000" color-rendering="auto" dominant-baseline="auto" image-rendering="auto" shape-rendering="auto" solid-color="#000000" stop-color="#000" style="font-feature-settings:normal;font-variant-alternates:normal;font-variant-caps:normal;font-variant-east-asian:normal;font-variant-ligatures:normal;font-variant-numeric:normal;font-variant-position:normal;font-variation-settings:normal;inline-size:0;isolation:auto;mix-blend-mode:normal;shape-margin:0;shape-padding:0;text-decoration-color:#000;text-decoration-line:none;text-decoration-style:solid;text-indent:0;text-orientation:mixed;text-transform:none;white-space:normal"/><path fill="url(#linearGradient1380)" stroke-width="2" d="m15.113 6.7576c-0.53676 0-0.97656 0.43982-0.97656 0.97656v3.6132c0 0.53676 0.43982 0.97266 0.97656 0.97266h3.8594c0.53676 0 0.97656-0.4359 0.97656-0.97266v-3.6132c0-0.53676-0.43982-0.97656-0.97656-0.97656zm0 0.42578h3.8594c0.30932 0 0.55078 0.24146 0.55078 0.55078v3.6132c0 0.30932-0.24146 0.55078-0.55078 0.55078h-3.8594c-0.30932 0-0.55078-0.24146-0.55078-0.55078v-3.6132c0-0.30932 0.24146-0.55078 0.55078-0.55078z" color="#000" color-rendering="auto" dominant-baseline="auto" image-rendering="auto" shape-rendering="auto" solid-color="#000000" stop-color="#000" style="font-feature-settings:normal;font-variant-alternates:normal;font-variant-caps:normal;font-variant-east-asian:normal;font-variant-ligatures:normal;font-variant-numeric:normal;font-variant-position:normal;font-variation-settings:normal;inline-size:0;isolation:auto;mix-blend-mode:normal;shape-margin:0;shape-padding:0;text-decoration-color:#000;text-decoration-line:none;text-decoration-style:solid;text-indent:0;text-orientation:mixed;text-transform:none;white-space:normal"/><path fill="url(#linearGradient1384)" stroke-width="2" d="m7.5296 6.9708h3.8586c0.42304 0 0.7636 0.34056 0.7636 0.7636v3.612c0 0.42304-0.34056 0.7636-0.7636 0.7636h-3.8586c-0.42304 0-0.7636-0.34056-0.7636-0.7636v-3.612c0-0.42304 0.34056-0.7636 0.7636-0.7636z" color="#000" color-rendering="auto" dominant-baseline="auto" image-rendering="auto" shape-rendering="auto" solid-color="#000000" stop-color="#000" style="font-feature-settings:normal;font-variant-alternates:normal;font-variant-caps:normal;font-variant-east-asian:normal;font-variant-ligatures:normal;font-variant-numeric:normal;font-variant-position:normal;font-variation-settings:normal;inline-size:0;isolation:auto;mix-blend-mode:normal;shape-margin:0;shape-padding:0;text-decoration-color:#000;text-decoration-line:none;text-decoration-style:solid;text-indent:0;text-orientation:mixed;text-transform:none;white-space:normal"/><path fill="url(#linearGradient1386)" stroke-width="2" d="m7.5312 6.7576c-0.53682 0-0.97656 0.43974-0.97656 0.97656v3.6132c0 0.53682 0.43974 0.97266 0.97656 0.97266h3.8554c0.53682 0 0.97656-0.43584 0.97656-0.97266v-3.6132c0-0.53682-0.43974-0.97656-0.97656-0.97656zm0 0.42578h3.8554c0.30926 0 0.55468 0.24152 0.55468 0.55078v3.6132c0 0.30926-0.24544 0.55078-0.55468 0.55078h-3.8554c-0.30926 0-0.55468-0.24152-0.55468-0.55078v-3.6132c0-0.30926 0.24544-0.55078 0.55468-0.55078z" color="#000" color-rendering="auto" dominant-baseline="auto" image-rendering="auto" shape-rendering="auto" solid-color="#000000" stop-color="#000" style="font-feature-settings:normal;font-variant-alternates:normal;font-variant-caps:normal;font-variant-east-asian:normal;font-variant-ligatures:normal;font-variant-numeric:normal;font-variant-position:normal;font-variation-settings:normal;inline-size:0;isolation:auto;mix-blend-mode:normal;shape-margin:0;shape-padding:0;text-decoration-color:#000;text-decoration-line:none;text-decoration-style:solid;text-indent:0;text-orientation:mixed;text-transform:none;white-space:normal"/><path fill="url(#linearGradient1402)" stroke-width="2" d="m22.478 6.9708h3.8586c0.42304 0 0.7636 0.34056 0.7636 0.7636v3.612c0 0.42304-0.34056 0.7636-0.7636 0.7636h-3.8586c-0.42304 0-0.7636-0.34056-0.7636-0.7636v-3.612c0-0.42304 0.34056-0.7636 0.7636-0.7636z" color="#000" color-rendering="auto" dominant-baseline="auto" image-rendering="auto" shape-rendering="auto" solid-color="#000000" stop-color="#000" style="font-feature-settings:normal;font-variant-alternates:normal;font-variant-caps:normal;font-variant-east-asian:normal;font-variant-ligatures:normal;font-variant-numeric:normal;font-variant-position:normal;font-variation-settings:normal;inline-size:0;isolation:auto;mix-blend-mode:normal;shape-margin:0;shape-padding:0;text-decoration-color:#000;text-decoration-line:none;text-decoration-style:solid;text-indent:0;text-orientation:mixed;text-transform:none;white-space:normal"/><path fill="url(#linearGradient1404)" stroke-width="2" d="m22.476 6.7576c-0.53676 0-0.97266 0.43982-0.97266 0.97656v3.6132c0 0.53676 0.4359 0.97266 0.97266 0.97266h3.8594c0.53676 0 0.97656-0.4359 0.97656-0.97266v-3.6132c0-0.53676-0.43982-0.97656-0.97656-0.97656zm0 0.42578h3.8594c0.30932 0 0.55078 0.24146 0.55078 0.55078v3.6132c0 0.30932-0.24146 0.55078-0.55078 0.55078h-3.8594c-0.30932 0-0.55078-0.24146-0.55078-0.55078v-3.6132c0-0.30932 0.24146-0.55078 0.55078-0.55078z" color="#000" color-rendering="auto" dominant-baseline="auto" image-rendering="auto" shape-rendering="auto" solid-color="#000000" stop-color="#000" style="font-feature-settings:normal;font-variant-alternates:normal;font-variant-caps:normal;font-variant-east-asian:normal;font-variant-ligatures:normal;font-variant-numeric:normal;font-variant-position:normal;font-variation-settings:normal;inline-size:0;isolation:auto;mix-blend-mode:normal;shape-margin:0;shape-padding:0;text-decoration-color:#000;text-decoration-line:none;text-decoration-style:solid;text-indent:0;text-orientation:mixed;text-transform:none;white-space:normal"/><path fill="url(#linearGradient1514)" stroke-width="2" d="m7.5296 14.371h3.8586c0.42304 0 0.7636 0.34056 0.7636 0.7636v3.612c0 0.42304-0.34056 0.7636-0.7636 0.7636h-3.8586c-0.42304 0-0.7636-0.34056-0.7636-0.7636v-3.612c0-0.42304 0.34056-0.7636 0.7636-0.7636z" color="#000" color-rendering="auto" dominant-baseline="auto" image-rendering="auto" shape-rendering="auto" solid-color="#000000" stop-color="#000" style="font-feature-settings:normal;font-variant-alternates:normal;font-variant-caps:normal;font-variant-east-asian:normal;font-variant-ligatures:normal;font-variant-numeric:normal;font-variant-position:normal;font-variation-settings:normal;inline-size:0;isolation:auto;mix-blend-mode:normal;shape-margin:0;shape-padding:0;text-decoration-color:#000;text-decoration-line:none;text-decoration-style:solid;text-indent:0;text-orientation:mixed;text-transform:none;white-space:normal"/><path fill="url(#linearGradient1516)" stroke-width="2" d="m7.5312 14.16c-0.53676 0-0.97656 0.43982-0.97656 0.97656v3.6094c0 0.53676 0.43982 0.97656 0.97656 0.97656h3.8554c0.53676 0 0.97656-0.43982 0.97656-0.97656v-3.6094c0-0.53676-0.43982-0.97656-0.97656-0.97656zm0 0.42188h3.8554c0.30932 0 0.55468 0.24536 0.55468 0.55468v3.6094c0 0.30932-0.24536 0.55468-0.55468 0.55468h-3.8554c-0.30932 0-0.55468-0.24536-0.55468-0.55468v-3.6094c0-0.30932 0.24536-0.55468 0.55468-0.55468z" color="#000" color-rendering="auto" dominant-baseline="auto" image-rendering="auto" shape-rendering="auto" solid-color="#000000" stop-color="#000" style="font-feature-settings:normal;font-variant-alternates:normal;font-variant-caps:normal;font-variant-east-asian:normal;font-variant-ligatures:normal;font-variant-numeric:normal;font-variant-position:normal;font-variation-settings:normal;inline-size:0;isolation:auto;mix-blend-mode:normal;shape-margin:0;shape-padding:0;text-decoration-color:#000;text-decoration-line:none;text-decoration-style:solid;text-indent:0;text-orientation:mixed;text-transform:none;white-space:normal"/><path fill="url(#linearGradient1560)" stroke-width="2" d="m15.113 14.371h3.8586c0.42304 0 0.7636 0.34056 0.7636 0.7636v3.612c0 0.42304-0.34056 0.7636-0.7636 0.7636h-3.8586c-0.42304 0-0.7636-0.34056-0.7636-0.7636v-3.612c0-0.42304 0.34056-0.7636 0.7636-0.7636z" color="#000" color-rendering="auto" dominant-baseline="auto" image-rendering="auto" shape-rendering="auto" solid-color="#000000" stop-color="#000" style="font-feature-settings:normal;font-variant-alternates:normal;font-variant-caps:normal;font-variant-east-asian:normal;font-variant-ligatures:normal;font-variant-numeric:normal;font-variant-position:normal;font-variation-settings:normal;inline-size:0;isolation:auto;mix-blend-mode:normal;shape-margin:0;shape-padding:0;text-decoration-color:#000;text-decoration-line:none;text-decoration-style:solid;text-indent:0;text-orientation:mixed;text-transform:none;white-space:normal"/><path fill="url(#linearGradient1562)" stroke-width="2" d="m15.113 14.16c-0.53676 0-0.97656 0.43982-0.97656 0.97656v3.6094c0 0.53676 0.43982 0.97656 0.97656 0.97656h3.8594c0.53676 0 0.97656-0.43982 0.97656-0.97656v-3.6094c0-0.53676-0.43982-0.97656-0.97656-0.97656zm0 0.42188h3.8594c0.30932 0 0.55078 0.24536 0.55078 0.55468v3.6094c0 0.30932-0.24146 0.55468-0.55078 0.55468h-3.8594c-0.30932 0-0.55078-0.24536-0.55078-0.55468v-3.6094c0-0.30932 0.24146-0.55468 0.55078-0.55468z" color="#000" color-rendering="auto" dominant-baseline="auto" image-rendering="auto" shape-rendering="auto" solid-color="#000000" stop-color="#000" style="font-feature-settings:normal;font-variant-alternates:normal;font-variant-caps:normal;font-variant-east-asian:normal;font-variant-ligatures:normal;font-variant-numeric:normal;font-variant-position:normal;font-variation-settings:normal;inline-size:0;isolation:auto;mix-blend-mode:normal;shape-margin:0;shape-padding:0;text-decoration-color:#000;text-decoration-line:none;text-decoration-style:solid;text-indent:0;text-orientation:mixed;text-transform:none;white-space:normal"/><path fill="url(#linearGradient1590)" stroke-width="2" d="m22.478 14.371h3.8586c0.42304 0 0.7636 0.34056 0.7636 0.7636v3.612c0 0.42304-0.34056 0.7636-0.7636 0.7636h-3.8586c-0.42304 0-0.7636-0.34056-0.7636-0.7636v-3.612c0-0.42304 0.34056-0.7636 0.7636-0.7636z" color="#000" color-rendering="auto" dominant-baseline="auto" image-rendering="auto" shape-rendering="auto" solid-color="#000000" stop-color="#000" style="font-feature-settings:normal;font-variant-alternates:normal;font-variant-caps:normal;font-variant-east-asian:normal;font-variant-ligatures:normal;font-variant-numeric:normal;font-variant-position:normal;font-variation-settings:normal;inline-size:0;isolation:auto;mix-blend-mode:normal;shape-margin:0;shape-padding:0;text-decoration-color:#000;text-decoration-line:none;text-decoration-style:solid;text-indent:0;text-orientation:mixed;text-transform:none;white-space:normal"/><path fill="url(#linearGradient1592)" stroke-width="2" d="m22.476 14.16c-0.53676 0-0.97266 0.43982-0.97266 0.97656v3.6094c0 0.53676 0.4359 0.97656 0.97266 0.97656h3.8594c0.53676 0 0.97656-0.43982 0.97656-0.97656v-3.6094c0-0.53676-0.43982-0.97656-0.97656-0.97656zm0 0.42188h3.8594c0.30932 0 0.55078 0.24536 0.55078 0.55468v3.6094c0 0.30932-0.24146 0.55468-0.55078 0.55468h-3.8594c-0.30932 0-0.55078-0.24536-0.55078-0.55468v-3.6094c0-0.30932 0.24146-0.55468 0.55078-0.55468z" color="#000" color-rendering="auto" dominant-baseline="auto" image-rendering="auto" shape-rendering="auto" solid-color="#000000" stop-color="#000" style="font-feature-settings:normal;font-variant-alternates:normal;font-variant-caps:normal;font-variant-east-asian:normal;font-variant-ligatures:normal;font-variant-numeric:normal;font-variant-position:normal;font-variation-settings:normal;inline-size:0;isolation:auto;mix-blend-mode:normal;shape-margin:0;shape-padding:0;text-decoration-color:#000;text-decoration-line:none;text-decoration-style:solid;text-indent:0;text-orientation:mixed;text-transform:none;white-space:normal"/><path fill="url(#linearGradient1620)" stroke-width="2" d="m7.5296 21.774h3.8586c0.42304 0 0.7636 0.34056 0.7636 0.7636v3.612c0 0.42304-0.34056 0.7636-0.7636 0.7636h-3.8586c-0.42304 0-0.7636-0.34056-0.7636-0.7636v-3.612c0-0.42304 0.34056-0.7636 0.7636-0.7636z" color="#000" color-rendering="auto" dominant-baseline="auto" image-rendering="auto" shape-rendering="auto" solid-color="#000000" stop-color="#000" style="font-feature-settings:normal;font-variant-alternates:normal;font-variant-caps:normal;font-variant-east-asian:normal;font-variant-ligatures:normal;font-variant-numeric:normal;font-variant-position:normal;font-variation-settings:normal;inline-size:0;isolation:auto;mix-blend-mode:normal;shape-margin:0;shape-padding:0;text-decoration-color:#000;text-decoration-line:none;text-decoration-style:solid;text-indent:0;text-orientation:mixed;text-transform:none;white-space:normal"/><path fill="url(#linearGradient1622)" stroke-width="2" d="m7.5312 21.562c-0.53676 0-0.97656 0.4359-0.97656 0.97266v3.6132c0 0.53676 0.43982 0.97656 0.97656 0.97656h3.8554c0.53676 0 0.97656-0.4398 0.97656-0.97656v-3.6132c0-0.53676-0.43982-0.97266-0.97656-0.97266zm0 0.42188h3.8554c0.30932 0 0.55468 0.24146 0.55468 0.55078v3.6132c0 0.30932-0.24536 0.55078-0.55468 0.55078h-3.8554c-0.30932 0-0.55468-0.24146-0.55468-0.55078v-3.6132c0-0.30932 0.24536-0.55078 0.55468-0.55078z" color="#000" color-rendering="auto" dominant-baseline="auto" image-rendering="auto" shape-rendering="auto" solid-color="#000000" stop-color="#000" style="font-feature-settings:normal;font-variant-alternates:normal;font-variant-caps:normal;font-variant-east-asian:normal;font-variant-ligatures:normal;font-variant-numeric:normal;font-variant-position:normal;font-variation-settings:normal;inline-size:0;isolation:auto;mix-blend-mode:normal;shape-margin:0;shape-padding:0;text-decoration-color:#000;text-decoration-line:none;text-decoration-style:solid;text-indent:0;text-orientation:mixed;text-transform:none;white-space:normal"/><path fill="url(#linearGradient1653)" stroke-width="2" d="m15.113 21.774h3.8586c0.42304 0 0.7636 0.34056 0.7636 0.7636v3.612c0 0.42304-0.34056 0.7636-0.7636 0.7636h-3.8586c-0.42304 0-0.7636-0.34056-0.7636-0.7636v-3.612c0-0.42304 0.34056-0.7636 0.7636-0.7636z" color="#000" color-rendering="auto" dominant-baseline="auto" image-rendering="auto" shape-rendering="auto" solid-color="#000000" stop-color="#000" style="font-feature-settings:normal;font-variant-alternates:normal;font-variant-caps:normal;font-variant-east-asian:normal;font-variant-ligatures:normal;font-variant-numeric:normal;font-variant-position:normal;font-variation-settings:normal;inline-size:0;isolation:auto;mix-blend-mode:normal;shape-margin:0;shape-padding:0;text-decoration-color:#000;text-decoration-line:none;text-decoration-style:solid;text-indent:0;text-orientation:mixed;text-transform:none;white-space:normal"/><path fill="url(#linearGradient1655)" stroke-width="2" d="m15.113 21.562c-0.53676 0-0.97656 0.4359-0.97656 0.97266v3.6132c0 0.53676 0.43982 0.97656 0.97656 0.97656h3.8594c0.53676 0 0.97656-0.4398 0.97656-0.97656v-3.6132c0-0.53676-0.43982-0.97266-0.97656-0.97266zm0 0.42188h3.8594c0.30932 0 0.55078 0.24146 0.55078 0.55078v3.6132c0 0.30932-0.24146 0.55078-0.55078 0.55078h-3.8594c-0.30932 0-0.55078-0.24146-0.55078-0.55078v-3.6132c0-0.30932 0.24146-0.55078 0.55078-0.55078z" color="#000" color-rendering="auto" dominant-baseline="auto" image-rendering="auto" shape-rendering="auto" solid-color="#000000" stop-color="#000" style="font-feature-settings:normal;font-variant-alternates:normal;font-variant-caps:normal;font-variant-east-asian:normal;font-variant-ligatures:normal;font-variant-numeric:normal;font-variant-position:normal;font-variation-settings:normal;inline-size:0;isolation:auto;mix-blend-mode:normal;shape-margin:0;shape-padding:0;text-decoration-color:#000;text-decoration-line:none;text-decoration-style:solid;text-indent:0;text-orientation:mixed;text-transform:none;white-space:normal"/><path fill="url(#linearGradient1685)" stroke-width="2" d="m22.478 21.774h3.8586c0.42304 0 0.7636 0.34056 0.7636 0.7636v3.612c0 0.42304-0.34056 0.7636-0.7636 0.7636h-3.8586c-0.42304 0-0.7636-0.34056-0.7636-0.7636v-3.612c0-0.42304 0.34056-0.7636 0.7636-0.7636z" color="#000" color-rendering="auto" dominant-baseline="auto" image-rendering="auto" shape-rendering="auto" solid-color="#000000" stop-color="#000" style="font-feature-settings:normal;font-variant-alternates:normal;font-variant-caps:normal;font-variant-east-asian:normal;font-variant-ligatures:normal;font-variant-numeric:normal;font-variant-position:normal;font-variation-settings:normal;inline-size:0;isolation:auto;mix-blend-mode:normal;shape-margin:0;shape-padding:0;text-decoration-color:#000;text-decoration-line:none;text-decoration-style:solid;text-indent:0;text-orientation:mixed;text-transform:none;white-space:normal"/><path fill="url(#linearGradient1687)" stroke-width="2" d="m22.476 21.562c-0.53676 0-0.97266 0.4359-0.97266 0.97266v3.6132c0 0.53676 0.4359 0.97656 0.97266 0.97656h3.8594c0.53676 0 0.97656-0.4398 0.97656-0.97656v-3.6132c0-0.53676-0.43982-0.97266-0.97656-0.97266zm0 0.42188h3.8594c0.30932 0 0.55078 0.24146 0.55078 0.55078v3.6132c0 0.30932-0.24146 0.55078-0.55078 0.55078h-3.8594c-0.30932 0-0.55078-0.24146-0.55078-0.55078v-3.6132c0-0.30932 0.24146-0.55078 0.55078-0.55078z" color="#000" color-rendering="auto" dominant-baseline="auto" image-rendering="auto" shape-rendering="auto" solid-color="#000000" stop-color="#000" style="font-feature-settings:normal;font-variant-alternates:normal;font-variant-caps:normal;font-variant-east-asian:normal;font-variant-ligatures:normal;font-variant-numeric:normal;font-variant-position:normal;font-variation-settings:normal;inline-size:0;isolation:auto;mix-blend-mode:normal;shape-margin:0;shape-padding:0;text-decoration-color:#000;text-decoration-line:none;text-decoration-style:solid;text-indent:0;text-orientation:mixed;text-transform:none;white-space:normal"/><style><![CDATA[.B{clip-path:url(#C)}.C{fill:#3e2723}.D{fill-opacity:.15}.E{fill-opacity:.2}]]></style><style><![CDATA[.B{clip-path:url(#C)}.C{fill:#3e2723}.D{fill-opacity:.15}.E{fill-opacity:.2}]]></style></svg>