<svg xmlns="http://www.w3.org/2000/svg" xmlns:svg="http://www.w3.org/2000/svg" id="svg6" width="24" height="24" version="1.1" viewBox="0 0 24 24"><metadata id="metadata2"/><path id="rect846" d="m 5.9895924,5.9895924 c -0.3917372,0.3917371 -0.3917372,1.0224764 0,1.4142135 L 10.585786,12 5.9895924,16.596194 c -0.3917372,0.391737 -0.3917372,1.022476 0,1.414214 0.3917371,0.391737 1.0224764,0.391737 1.4142135,0 L 12,13.414214 l 4.596194,4.596194 c 0.391737,0.391737 1.022476,0.391737 1.414214,0 0.391737,-0.391738 0.391737,-1.022477 0,-1.414214 L 13.414214,12 18.010408,7.4038059 c 0.391737,-0.3917371 0.391737,-1.0224764 0,-1.4142135 -0.391738,-0.3917372 -1.022477,-0.3917372 -1.414214,0 L 12,10.585786 7.4038059,5.9895924 c -0.3917371,-0.3917372 -1.0224764,-0.3917372 -1.4142135,0 z" style="fill:#fff;fill-opacity:1"/></svg>